HIERARCHY
ROOT Hips
{
	OFFSET -335.845001 -574.368103 89.378365
	CHANNELS 6 Xposition Yposition Zposition Zrotation Yrotation Xrotation
	JOINT Spine
	{
		OFFSET 0.000000 2.080078 8.814247
		CHANNELS 6 Xposition Yposition Zposition Zrotation Yrotation Xrotation
		JOINT Spine1
		{
			OFFSET 0.000000 0.000000 8.844139
			CHANNELS 6 Xposition Yposition Zposition Zrotation Yrotation Xrotation
			JOINT Spine2
			{
				OFFSET 0.000000 0.000000 11.682266
				CHANNELS 6 Xposition Yposition Zposition Zrotation Yrotation Xrotation
				JOINT Spine3
				{
					OFFSET 0.000000 0.000000 11.746696
					CHANNELS 6 Xposition Yposition Zposition Zrotation Yrotation Xrotation
					JOINT Neck
					{
						OFFSET 0.000000 0.000000 17.658264
						CHANNELS 6 Xposition Yposition Zposition Zrotation Yrotation Xrotation
						JOINT Neck1
						{
							OFFSET 0.000000 0.000000 5.101517
							CHANNELS 6 Xposition Yposition Zposition Zrotation Yrotation Xrotation
							JOINT Head
							{
								OFFSET 0.000000 0.000000 5.101517
								CHANNELS 6 Xposition Yposition Zposition Zrotation Yrotation Xrotation
								JOINT HeadEnd
								{
									OFFSET 0.000000 0.000000 11.655090
									CHANNELS 6 Xposition Yposition Zposition Zrotation Yrotation Xrotation
									End Site
									{
										OFFSET 0.000000 0.000000 0.100006
									}
								}
							}
						}
					}
					JOINT RightShoulder
					{
						OFFSET -2.625397 0.000000 11.175217
						CHANNELS 6 Xposition Yposition Zposition Zrotation Yrotation Xrotation
						JOINT RightArm
						{
							OFFSET 0.000000 0.000000 10.434708
							CHANNELS 6 Xposition Yposition Zposition Zrotation Yrotation Xrotation
							JOINT RightForeArm
							{
								OFFSET 0.000000 0.000000 29.628418
								CHANNELS 6 Xposition Yposition Zposition Zrotation Yrotation Xrotation
								JOINT RightHand
								{
									OFFSET 0.000000 0.000000 22.857605
									CHANNELS 6 Xposition Yposition Zposition Zrotation Yrotation Xrotation
									JOINT RightHandThumb1
									{
										OFFSET -2.867310 -2.944275 3.959564
										CHANNELS 6 Xposition Yposition Zposition Zrotation Yrotation Xrotation
										JOINT RightHandThumb2
										{
											OFFSET 0.000000 0.000000 3.350403
											CHANNELS 6 Xposition Yposition Zposition Zrotation Yrotation Xrotation
											JOINT RightHandThumb3
											{
												OFFSET 0.000000 0.000000 3.756516
												CHANNELS 6 Xposition Yposition Zposition Zrotation Yrotation Xrotation
												JOINT RightHandThumb4
												{
													OFFSET 0.000000 0.000000 3.147339
													CHANNELS 6 Xposition Yposition Zposition Zrotation Yrotation Xrotation
													End Site
													{
														OFFSET 0.000000 0.000000 0.100006
													}
												}
											}
										}
									}
									JOINT RightHandIndex1
									{
										OFFSET -0.086761 -2.345276 10.030899
										CHANNELS 6 Xposition Yposition Zposition Zrotation Yrotation Xrotation
										JOINT RightHandIndex2
										{
											OFFSET 0.000000 0.000000 4.061096
											CHANNELS 6 Xposition Yposition Zposition Zrotation Yrotation Xrotation
											JOINT RightHandIndex3
											{
												OFFSET 0.000000 0.000000 3.248871
												CHANNELS 6 Xposition Yposition Zposition Zrotation Yrotation Xrotation
												JOINT RightHandIndex4
												{
													OFFSET 0.000000 0.000000 2.639709
													CHANNELS 6 Xposition Yposition Zposition Zrotation Yrotation Xrotation
													End Site
													{
														OFFSET 0.000000 0.000000 0.100006
													}
												}
											}
										}
									}
									JOINT RightHandMiddle1
									{
										OFFSET 0.104095 -0.006775 9.502945
										CHANNELS 6 Xposition Yposition Zposition Zrotation Yrotation Xrotation
										JOINT RightHandMiddle2
										{
											OFFSET 0.000000 0.000000 4.568726
											CHANNELS 6 Xposition Yposition Zposition Zrotation Yrotation Xrotation
											JOINT RightHandMiddle3
											{
												OFFSET 0.000000 0.000000 3.654984
												CHANNELS 6 Xposition Yposition Zposition Zrotation Yrotation Xrotation
												JOINT RightHandMiddle4
												{
													OFFSET 0.000000 0.000000 2.741241
													CHANNELS 6 Xposition Yposition Zposition Zrotation Yrotation Xrotation
													End Site
													{
														OFFSET 0.000000 0.000000 0.100006
													}
												}
											}
										}
									}
									JOINT RightHandRing1
									{
										OFFSET 0.086761 2.267456 8.921707
										CHANNELS 6 Xposition Yposition Zposition Zrotation Yrotation Xrotation
										JOINT RightHandRing2
										{
											OFFSET 0.000000 0.000000 4.061096
											CHANNELS 6 Xposition Yposition Zposition Zrotation Yrotation Xrotation
											JOINT RightHandRing3
											{
												OFFSET 0.000000 0.000000 3.654984
												CHANNELS 6 Xposition Yposition Zposition Zrotation Yrotation Xrotation
												JOINT RightHandRing4
												{
													OFFSET 0.000000 0.000000 2.741241
													CHANNELS 6 Xposition Yposition Zposition Zrotation Yrotation Xrotation
													End Site
													{
														OFFSET 0.000000 0.000000 0.100006
													}
												}
											}
										}
									}
									JOINT RightHandPinky1
									{
										OFFSET -0.173492 4.467224 7.976990
										CHANNELS 6 Xposition Yposition Zposition Zrotation Yrotation Xrotation
										JOINT RightHandPinky2
										{
											OFFSET 0.000000 0.000000 3.350403
											CHANNELS 6 Xposition Yposition Zposition Zrotation Yrotation Xrotation
											JOINT RightHandPinky3
											{
												OFFSET 0.000000 0.000000 2.842758
												CHANNELS 6 Xposition Yposition Zposition Zrotation Yrotation Xrotation
												JOINT RightHandPinky4
												{
													OFFSET 0.000000 0.000000 2.639709
													CHANNELS 6 Xposition Yposition Zposition Zrotation Yrotation Xrotation
													End Site
													{
														OFFSET 0.000000 0.000000 0.100006
													}
												}
											}
										}
									}
									JOINT RightForeArmEnd
									{
										OFFSET 0.000000 0.000000 0.000000
										CHANNELS 6 Xposition Yposition Zposition Zrotation Yrotation Xrotation
										End Site
										{
											OFFSET 0.000000 0.000000 0.100006
										}
									}
								}
								JOINT RightArmEnd
								{
									OFFSET 0.000000 0.000000 0.000000
									CHANNELS 6 Xposition Yposition Zposition Zrotation Yrotation Xrotation
									End Site
									{
										OFFSET 0.000000 0.000000 0.100006
									}
								}
							}
						}
					}
					JOINT LeftShoulder
					{
						OFFSET 2.625397 0.000000 11.175217
						CHANNELS 6 Xposition Yposition Zposition Zrotation Yrotation Xrotation
						JOINT LeftArm
						{
							OFFSET 0.000000 0.000000 10.813629
							CHANNELS 6 Xposition Yposition Zposition Zrotation Yrotation Xrotation
							JOINT LeftForeArm
							{
								OFFSET 0.000000 0.000000 28.724777
								CHANNELS 6 Xposition Yposition Zposition Zrotation Yrotation Xrotation
								JOINT LeftHand
								{
									OFFSET 0.644379 0.328857 25.716171
									CHANNELS 6 Xposition Yposition Zposition Zrotation Yrotation Xrotation
									JOINT LeftHandThumb1
									{
										OFFSET 2.867310 -2.944275 3.959564
										CHANNELS 6 Xposition Yposition Zposition Zrotation Yrotation Xrotation
										JOINT LeftHandThumb2
										{
											OFFSET 0.000000 0.000000 3.350403
											CHANNELS 6 Xposition Yposition Zposition Zrotation Yrotation Xrotation
											JOINT LeftHandThumb3
											{
												OFFSET 0.000000 0.000000 3.756516
												CHANNELS 6 Xposition Yposition Zposition Zrotation Yrotation Xrotation
												JOINT LeftHandThumb4
												{
													OFFSET 0.000000 0.000000 3.100006
													CHANNELS 6 Xposition Yposition Zposition Zrotation Yrotation Xrotation
													End Site
													{
														OFFSET 0.000000 0.000000 0.100006
													}
												}
											}
										}
									}
									JOINT LeftHandIndex1
									{
										OFFSET 0.086761 -2.345276 10.030899
										CHANNELS 6 Xposition Yposition Zposition Zrotation Yrotation Xrotation
										JOINT LeftHandIndex2
										{
											OFFSET 0.000000 0.000000 4.061096
											CHANNELS 6 Xposition Yposition Zposition Zrotation Yrotation Xrotation
											JOINT LeftHandIndex3
											{
												OFFSET 0.000000 0.000000 3.248871
												CHANNELS 6 Xposition Yposition Zposition Zrotation Yrotation Xrotation
												JOINT LeftHandIndex4
												{
													OFFSET 0.000000 0.000000 2.639709
													CHANNELS 6 Xposition Yposition Zposition Zrotation Yrotation Xrotation
													End Site
													{
														OFFSET 0.000000 0.000000 0.100006
													}
												}
											}
										}
									}
									JOINT LeftHandMiddle1
									{
										OFFSET -0.104095 -0.006775 9.502945
										CHANNELS 6 Xposition Yposition Zposition Zrotation Yrotation Xrotation
										JOINT LeftHandMiddle2
										{
											OFFSET 0.000000 0.000000 4.568726
											CHANNELS 6 Xposition Yposition Zposition Zrotation Yrotation Xrotation
											JOINT LeftHandMiddle3
											{
												OFFSET 0.000000 0.000000 3.654984
												CHANNELS 6 Xposition Yposition Zposition Zrotation Yrotation Xrotation
												JOINT LeftHandMiddle4
												{
													OFFSET 0.000000 0.000000 2.741241
													CHANNELS 6 Xposition Yposition Zposition Zrotation Yrotation Xrotation
													End Site
													{
														OFFSET 0.000000 0.000000 0.100006
													}
												}
											}
										}
									}
									JOINT LeftHandRing1
									{
										OFFSET -0.086761 2.267456 8.921707
										CHANNELS 6 Xposition Yposition Zposition Zrotation Yrotation Xrotation
										JOINT LeftHandRing2
										{
											OFFSET 0.000000 0.000000 4.061096
											CHANNELS 6 Xposition Yposition Zposition Zrotation Yrotation Xrotation
											JOINT LeftHandRing3
											{
												OFFSET 0.000000 0.000000 3.654984
												CHANNELS 6 Xposition Yposition Zposition Zrotation Yrotation Xrotation
												JOINT LeftHandRing4
												{
													OFFSET 0.000000 0.000000 2.741241
													CHANNELS 6 Xposition Yposition Zposition Zrotation Yrotation Xrotation
													End Site
													{
														OFFSET 0.000000 0.000000 0.100006
													}
												}
											}
										}
									}
									JOINT LeftHandPinky1
									{
										OFFSET 0.173492 4.467224 7.976990
										CHANNELS 6 Xposition Yposition Zposition Zrotation Yrotation Xrotation
										JOINT LeftHandPinky2
										{
											OFFSET 0.000000 0.000000 3.350403
											CHANNELS 6 Xposition Yposition Zposition Zrotation Yrotation Xrotation
											JOINT LeftHandPinky3
											{
												OFFSET 0.000000 0.000000 2.842758
												CHANNELS 6 Xposition Yposition Zposition Zrotation Yrotation Xrotation
												JOINT LeftHandPinky4
												{
													OFFSET 0.000000 0.000000 2.639709
													CHANNELS 6 Xposition Yposition Zposition Zrotation Yrotation Xrotation
													End Site
													{
														OFFSET 0.000000 0.000000 0.100006
													}
												}
											}
										}
									}
									JOINT LeftForeArmEnd
									{
										OFFSET 0.000000 0.000000 0.000000
										CHANNELS 6 Xposition Yposition Zposition Zrotation Yrotation Xrotation
										End Site
										{
											OFFSET 0.000000 0.000000 0.100006
										}
									}
								}
								JOINT LeftArmEnd
								{
									OFFSET 0.000000 0.000000 0.000000
									CHANNELS 6 Xposition Yposition Zposition Zrotation Yrotation Xrotation
									End Site
									{
										OFFSET 0.000000 0.000000 0.100006
									}
								}
							}
						}
					}
				}
			}
		}
	}
	JOINT RightUpLeg
	{
		OFFSET -11.289948 0.000000 0.000000
		CHANNELS 6 Xposition Yposition Zposition Zrotation Yrotation Xrotation
		JOINT RightLeg
		{
			OFFSET 0.000000 0.000000 -38.200329
			CHANNELS 6 Xposition Yposition Zposition Zrotation Yrotation Xrotation
			JOINT RightFoot
			{
				OFFSET 0.000000 0.000000 -39.900856
				CHANNELS 6 Xposition Yposition Zposition Zrotation Yrotation Xrotation
				JOINT RightToeBase
				{
					OFFSET 0.000000 -15.261658 0.000002
					CHANNELS 6 Xposition Yposition Zposition Zrotation Yrotation Xrotation
					JOINT RightToeBaseEnd
					{
						OFFSET 0.000000 -7.370728 0.000000
						CHANNELS 6 Xposition Yposition Zposition Zrotation Yrotation Xrotation
						End Site
						{
							OFFSET 0.000000 0.000000 0.100000
						}
					}
				}
				JOINT RightLegEnd
				{
					OFFSET 0.000000 0.000000 0.000000
					CHANNELS 6 Xposition Yposition Zposition Zrotation Yrotation Xrotation
					End Site
					{
						OFFSET 0.000000 0.000000 0.100000
					}
				}
			}
			JOINT RightUpLegEnd
			{
				OFFSET 0.000000 0.000000 0.000000
				CHANNELS 6 Xposition Yposition Zposition Zrotation Yrotation Xrotation
				End Site
				{
					OFFSET 0.000000 0.000000 0.099998
				}
			}
		}
	}
	JOINT LeftUpLeg
	{
		OFFSET 11.315674 0.000000 0.000000
		CHANNELS 6 Xposition Yposition Zposition Zrotation Yrotation Xrotation
		JOINT LeftLeg
		{
			OFFSET 0.000000 0.000000 -38.200329
			CHANNELS 6 Xposition Yposition Zposition Zrotation Yrotation Xrotation
			JOINT LeftFoot
			{
				OFFSET 0.000000 0.000000 -39.900856
				CHANNELS 6 Xposition Yposition Zposition Zrotation Yrotation Xrotation
				JOINT LeftToeBase
				{
					OFFSET 0.000000 -15.261658 0.000002
					CHANNELS 6 Xposition Yposition Zposition Zrotation Yrotation Xrotation
					JOINT LeftToeBaseEnd
					{
						OFFSET 0.000000 -7.539978 0.000000
						CHANNELS 6 Xposition Yposition Zposition Zrotation Yrotation Xrotation
						End Site
						{
							OFFSET 0.000000 0.000000 0.100000
						}
					}
				}
				JOINT LeftLegEnd
				{
					OFFSET 0.000000 0.000000 0.000000
					CHANNELS 6 Xposition Yposition Zposition Zrotation Yrotation Xrotation
					End Site
					{
						OFFSET 0.000000 0.000000 0.100000
					}
				}
			}
			JOINT LeftUpLegEnd
			{
				OFFSET 0.000000 0.000000 0.000000
				CHANNELS 6 Xposition Yposition Zposition Zrotation Yrotation Xrotation
				End Site
				{
					OFFSET 0.000000 0.000000 0.099998
				}
			}
		}
	}
}
MOTION
Frames: 2
Frame Time: 0.016667
-36.512848 -25.317688 87.809624 -6.490926 -4.960579 -8.979365 -0.000015 2.080080 8.814236 -0.727424 -2.274468 11.651905 0.000035 0.000015 8.844154 -0.032006 0.317267 6.600592 -0.000016 -0.000032 11.682265 -8.228660 0.237623 5.793290 -0.000029 0.000083 11.746709 -3.720785 1.983719 2.012356 -0.000003 0.000022 17.658257 2.721995 -2.066550 -5.081005 -0.000010 0.000008 5.101504 6.297261 -0.597652 -8.696473 0.000004 0.000014 5.101522 -1.834304 3.262431 -19.343487 -0.000001 -0.000004 11.655081 0.000000 -0.000001 -0.000001 -2.625404 0.000016 11.175223 11.277600 -78.121573 -0.191267 0.000015 -0.000019 10.434694 27.409331 -25.420818 -1.285202 -0.000042 -0.000008 29.628456 14.494344 1.339771 108.444382 0.000015 -0.000028 22.857618 4.605089 6.447547 2.179721 -2.867298 -2.944290 3.959549 31.489180 -19.590755 48.067770 0.000008 -0.000008 3.350368 -17.852776 10.075328 -31.394999 0.000008 0.000000 3.756508 -11.803474 8.063945 -21.420585 0.000013 -0.000065 3.147344 -0.000000 0.000001 -0.000002 -0.086777 -2.345266 10.030907 163.232779 -147.500886 -170.652905 -0.000010 -0.000069 4.061104 -0.235607 -23.599745 3.520150 0.000011 -0.000051 3.248894 -0.735610 -23.599664 3.520167 -0.000040 0.000051 2.639718 0.000001 0.000002 0.000002 0.104073 -0.006835 9.502956 169.335798 -147.489575 -174.488684 -0.000070 0.000026 4.568723 0.233078 -23.310872 1.293976 -0.000042 -0.000012 3.654981 -0.266933 -23.310867 1.293965 -0.000042 -0.000002 2.741235 0.000001 0.000001 -0.000002 0.086779 2.267463 8.921712 178.120829 -143.565235 -181.345306 0.000002 -0.000001 4.061122 -0.608853 -25.893227 -1.701364 -0.000025 -0.000035 3.655025 0.391147 -25.893213 -1.701353 -0.000029 0.000003 2.741243 0.000001 0.000000 0.000000 -0.173531 4.467148 7.977028 -171.663609 -143.357433 168.752828 -0.000048 -0.000046 3.350414 -0.678219 -26.603059 -5.586673 0.000016 -0.000067 2.842758 1.321775 -26.603064 -5.586664 0.000004 -0.000061 2.639715 -0.000000 -0.000001 -0.000001 -0.000007 -0.000003 -0.000003 -0.000000 -0.000004 -0.000000 -0.000011 -0.000000 0.000010 0.000000 0.000000 -0.000001 2.625370 -0.000013 11.175212 -15.170064 83.085283 -0.427928 0.000031 0.000032 10.813631 -9.560882 38.420600 3.568368 0.000029 -0.000023 28.724852 -11.970278 0.452337 105.031364 0.644348 0.328781 25.716122 19.533255 -44.919712 4.963985 2.867302 -2.944305 3.959557 -31.513420 20.692577 46.493941 0.000000 -0.000038 3.350433 20.319446 -10.574209 -35.376432 -0.000053 -0.000008 3.756512 13.413384 -8.714987 -24.113146 -0.000032 -0.000013 3.100003 0.000001 0.000000 -0.000001 0.086746 -2.345259 10.030917 -2.499606 41.388238 -0.031589 -0.000055 0.000013 4.061134 -0.639716 28.816257 -4.434237 -0.000052 0.000023 3.248886 -1.139736 28.816309 -4.434263 -0.000033 -0.000013 2.639698 0.000001 0.000003 -0.000003 -0.104101 -0.006790 9.502949 -175.725140 138.288736 -175.461044 -0.000056 -0.000035 4.568765 0.054626 29.441459 -1.695072 0.000009 -0.000087 3.655004 -0.445383 29.441377 -1.695074 -0.000027 -0.000016 2.741224 0.000002 0.000001 -0.000002 -0.086754 2.267463 8.921753 -162.229465 133.006760 -166.188010 -0.000036 -0.000027 4.061110 -0.270168 34.137576 2.376655 -0.000028 -0.000009 3.655012 0.729837 34.137535 2.376663 -0.000044 0.000017 2.741247 -0.000002 -0.000001 -0.000003 0.173523 4.467170 7.977020 -148.095290 132.434322 -156.741927 -0.000065 -0.000032 3.350410 0.610875 35.823243 8.065874 -0.000055 0.000048 2.842789 2.610866 35.823260 8.065868 -0.000016 -0.000002 2.639709 0.000001 0.000003 -0.000001 -0.000013 -0.000028 0.000019 0.000004 0.000006 0.000003 -0.000021 -0.000023 -0.000021 0.000003 0.000002 -0.000001 -11.289942 0.000024 -0.000011 -23.832738 8.113281 -5.359138 -0.000007 0.000049 -38.200314 -0.235506 0.122258 27.402470 -0.000024 -0.000067 -39.900864 -15.350797 -1.613251 10.977477 -0.000006 -15.261740 0.000026 1.593251 0.586406 -16.846733 -0.000009 -7.370689 0.000001 -0.000006 0.000000 0.000001 0.000013 -0.000002 0.000004 0.000001 -0.000000 0.000002 -0.000011 0.000109 -0.000000 0.000002 0.000001 0.000000 11.315681 -0.000019 -0.000008 0.407218 -16.988146 4.884862 0.000026 0.000049 -38.200321 1.637646 -0.572177 19.253654 0.000015 0.000006 -39.900887 12.246872 3.937469 41.620803 0.000003 -15.261696 0.000020 -2.127628 2.057536 -25.137669 -0.000031 -7.539970 0.000003 -0.000001 0.000001 0.000001 0.000005 -0.000003 -0.000002 0.000000 0.000002 -0.000003 0.000032 0.000001 0.000002 -0.000000 -0.000002 -0.000001 
-36.655548 -25.592529 87.861771 -6.177891 -5.079943 -9.018523 0.000013 2.080096 8.814248 -0.729466 -2.337822 11.514859 -0.000015 -0.000009 8.844152 -0.061527 0.267128 6.543010 -0.000014 0.000030 11.682273 -8.163128 0.272790 5.901372 -0.000006 0.000003 11.746687 -3.687484 2.010682 2.091475 -0.000007 0.000020 17.658260 3.260023 -1.673192 -5.307301 0.000009 0.000008 5.101525 6.743590 -0.660540 -8.782286 -0.000009 -0.000007 5.101486 -1.780730 3.290693 -19.190222 0.000001 -0.000005 11.655096 -0.000000 0.000001 0.000001 -2.625389 0.000018 11.175209 11.265752 -78.510989 -0.194861 -0.000008 -0.000004 10.434717 27.592526 -27.062301 -2.979829 -0.000004 0.000008 29.628410 14.559496 1.332735 109.282849 0.000013 -0.000049 22.857601 6.794894 7.587472 3.826914 -2.867352 -2.944275 3.959557 31.494361 -20.139545 47.279970 0.000008 0.000015 3.350384 -19.081218 10.345854 -33.382184 0.000011 0.000008 3.756481 -12.604231 8.398814 -22.764006 0.000040 -0.000073 3.147356 0.000001 -0.000002 -0.000001 -0.086769 -2.345283 10.030891 161.388696 -142.993658 -168.453024 -0.000030 -0.000070 4.061081 -0.483759 -26.969113 4.100922 -0.000041 -0.000065 3.248917 -0.983778 -26.969115 4.100931 -0.000044 0.000011 2.639709 -0.000001 0.000001 0.000000 0.104042 -0.006815 9.502956 167.890640 -142.999777 -172.522205 -0.000007 0.000019 4.568719 0.144530 -26.598515 1.503747 0.000008 0.000013 3.654976 -0.355454 -26.598510 1.503734 -0.000004 0.000004 2.741234 -0.000001 -0.000003 0.000000 0.086689 2.267468 8.921694 177.153428 -138.821901 -179.498314 -0.000032 -0.000060 4.061098 -0.490871 -29.170112 -1.956504 -0.000000 -0.000049 3.654982 0.509140 -29.170129 -1.956482 -0.000032 0.000062 2.741239 -0.000001 -0.000001 0.000001 -0.173548 4.467142 7.976974 -171.780187 -138.602748 170.406799 0.000008 -0.000042 3.350422 -0.331572 -29.535756 -6.323132 -0.000009 -0.000072 2.842781 1.668421 -29.535773 -6.323128 -0.000025 -0.000057 2.639752 -0.000001 -0.000003 0.000000 -0.000041 0.000003 0.000006 -0.000000 -0.000002 -0.000000 -0.000011 -0.000004 -0.000013 0.000000 -0.000002 -0.000000 2.625370 -0.000022 11.175226 -14.731205 84.098487 -0.399087 -0.000008 0.000019 10.813614 -8.519663 40.803793 2.501101 0.000046 0.000008 28.724808 -11.736822 0.514225 107.563301 0.644363 0.328781 25.716156 16.674558 -47.567992 8.291196 2.867264 -2.944321 3.959572 -31.560494 21.436118 45.448403 0.000015 -0.000046 3.350452 21.982872 -10.812351 -38.044437 -0.000038 -0.000015 3.756477 14.504571 -9.107028 -25.920518 -0.000032 -0.000008 3.099995 0.000001 -0.000000 0.000001 0.086735 -2.345299 10.030891 -1.741886 46.760776 -0.392554 -0.000031 -0.000025 4.061127 -1.008412 32.595893 -5.155872 -0.000060 -0.000030 3.248894 -1.508409 32.595927 -5.155869 -0.000040 0.000003 2.639727 0.000000 0.000000 -0.000001 -0.104111 -0.006774 9.502941 -174.132490 132.272241 -174.410438 -0.000013 -0.000080 4.568750 -0.107279 33.713578 -2.004024 -0.000021 -0.000067 3.654987 -0.607275 33.713605 -2.004026 -0.000027 -0.000006 2.741266 0.000000 0.000002 -0.000000 -0.086761 2.267420 8.921776 -157.339842 125.393735 -160.434860 -0.000032 0.000022 4.061113 0.068092 39.957597 2.937381 -0.000025 -0.000006 3.655039 1.068092 39.957563 2.937373 -0.000045 0.000004 2.741285 -0.000001 -0.000000 -0.000000 0.173485 4.467174 7.976997 -139.370160 124.838946 -145.972658 -0.000038 0.000010 3.350479 2.021028 42.589515 10.292666 -0.000008 -0.000027 2.842758 4.021030 42.589508 10.292661 -0.000021 0.000009 2.639723 -0.000001 -0.000000 0.000000 -0.000023 -0.000010 0.000025 0.000002 -0.000000 0.000000 -0.000019 0.000014 0.000004 -0.000002 0.000000 -0.000002 -11.289932 0.000005 0.000011 -23.934330 8.269580 -5.067654 -0.000001 0.000067 -38.200321 -0.242858 0.125170 27.277569 -0.000028 -0.000082 -39.900860 -15.541541 -1.728706 10.927434 -0.000007 -15.261724 0.000030 1.596787 0.627149 -16.741203 -0.000004 -7.370715 -0.000001 -0.000002 -0.000000 -0.000000 -0.000009 -0.000014 0.000002 0.000002 -0.000000 0.000003 -0.000021 0.000115 0.000006 0.000001 0.000001 0.000001 11.315674 -0.000048 0.000008 0.307266 -16.883307 5.170697 0.000031 0.000065 -38.200317 1.631152 -0.547420 18.546650 0.000039 -0.000004 -39.900841 11.476979 3.635661 41.718027 0.000000 -15.261753 0.000000 -2.114967 2.087839 -25.095034 -0.000022 -7.539918 0.000001 0.000000 -0.000002 0.000000 0.000009 0.000010 -0.000001 -0.000002 0.000001 -0.000002 0.000027 0.000056 -0.000001 0.000001 0.000001 -0.000001 
